<?xml version="1.0" standalone="no"?>
<!DOCTYPE svg PUBLIC "-//W3C//DTD SVG 20010904//EN"
 "http://www.w3.org/TR/2001/REC-SVG-20010904/DTD/svg10.dtd">
<svg version="1.0" xmlns="http://www.w3.org/2000/svg"
 width="417.000000pt" height="417.000000pt" viewBox="0 0 417.000000 417.000000"
 preserveAspectRatio="xMidYMid meet">
<metadata>
Created by potrace 1.11, written by Peter Selinger 2001-2013
</metadata>
<g transform="translate(0.000000,417.000000) scale(0.100000,-0.100000)"
fill="#000000" stroke="none">
<path d="M1875 4120 l-50 -6 40 -5 c22 -2 61 -1 87 3 25 4 95 5 155 2 59 -3
136 -5 170 -6 34 0 60 -5 57 -9 -3 -5 0 -9 6 -9 7 0 10 6 7 13 -2 8 -25 12
-65 12 -34 0 -62 3 -62 7 0 9 -272 8 -345 -2z"/>
<path d="M1750 4104 c-53 -11 -54 -12 -15 -12 46 0 94 11 80 19 -6 3 -35 0
-65 -7z"/>
<path d="M2365 4099 c4 -5 22 -9 42 -9 45 0 40 5 -10 13 -22 3 -35 2 -32 -4z"/>
<path d="M1618 4077 c-45 -13 -50 -25 -9 -23 16 1 27 4 24 9 -2 4 5 7 16 7 11
0 23 5 26 10 7 12 -7 11 -57 -3z"/>
<path d="M2447 4083 c-3 -5 8 -8 23 -9 15 -1 36 -4 46 -8 16 -6 16 -9 4 -17
-12 -9 -12 -10 3 -5 10 3 31 6 45 7 17 0 4 7 -38 20 -73 21 -77 22 -83 12z"/>
<path d="M1481 4034 c-66 -25 -97 -43 -51 -29 14 4 31 10 39 13 10 4 12 1 6
-8 -5 -9 -4 -11 4 -6 6 4 8 12 5 18 -4 6 1 8 15 3 12 -4 21 -2 21 4 0 6 6 11
14 11 8 0 18 5 21 10 9 14 -2 12 -74 -16z"/>
<path d="M2450 4050 c-9 -6 -10 -10 -3 -10 6 0 15 5 18 10 8 12 4 12 -15 0z"/>
<path d="M2594 4039 c-3 -5 5 -9 18 -9 13 0 39 -9 59 -19 23 -13 41 -16 50
-10 11 7 9 9 -6 9 -12 0 -25 4 -30 9 -16 15 -84 30 -91 20z"/>
<path d="M1457 3989 c7 -7 15 -10 18 -7 3 3 -2 9 -12 12 -14 6 -15 5 -6 -5z"/>
<path d="M1280 3950 c-41 -22 -75 -43 -75 -47 0 -4 -4 -13 -8 -20 -11 -17 10
-26 30 -13 15 9 14 10 -7 4 -22 -6 -23 -5 -11 9 7 9 18 14 25 10 6 -3 8 -3 4
2 -13 14 21 37 43 30 16 -5 19 -4 14 6 -6 9 -3 11 9 6 10 -4 15 -3 11 3 -7 11
34 35 54 31 7 -1 10 2 6 8 -9 15 -10 14 -95 -29z"/>
<path d="M2765 3980 c-4 -6 1 -10 10 -10 24 0 66 -31 58 -44 -3 -6 0 -6 8 2
22 20 34 14 14 -8 -22 -24 -9 -27 17 -3 15 13 19 14 16 3 -2 -8 4 -15 12 -15
8 -1 28 -7 45 -14 24 -10 27 -14 15 -23 -12 -8 -12 -9 3 -4 20 7 80 -20 73
-33 -3 -4 0 -8 7 -8 17 0 67 -33 67 -44 0 -5 -11 -2 -26 7 -20 14 -27 15 -37
4 -9 -10 -9 -11 0 -6 7 4 23 0 36 -9 14 -9 32 -13 43 -9 10 4 16 4 12 0 -9
-11 34 -54 49 -49 6 3 17 -5 23 -17 6 -11 15 -18 21 -15 8 6 13 -8 10 -27 0
-4 7 -4 17 -1 14 6 15 4 5 -9 -15 -17 -7 -29 13 -21 8 3 14 1 14 -4 0 -5 6
-10 14 -10 11 0 12 4 3 18 -6 9 -17 14 -25 11 -9 -3 -13 -1 -9 5 7 11 -79 94
-92 90 -3 -1 -6 1 -6 5 0 17 -165 126 -285 190 -104 54 -118 60 -125 48z"/>
<path d="M1380 3955 c-9 -11 -9 -15 -1 -15 7 0 9 -4 6 -10 -3 -5 -1 -10 5 -10
7 0 9 7 6 17 -4 9 -1 20 6 25 8 5 9 8 2 8 -6 0 -17 -7 -24 -15z"/>
<path d="M1120 3859 c-111 -68 -289 -214 -276 -226 4 -5 13 0 20 9 7 10 16 15
19 11 4 -3 7 -1 7 6 0 7 5 9 12 5 7 -5 5 -11 -7 -21 -11 -7 -14 -13 -8 -13 5
0 18 9 29 21 10 11 14 20 9 19 -21 -5 -25 1 -15 20 13 24 35 27 26 3 -6 -14
-4 -14 16 2 13 11 25 22 28 24 3 2 -6 0 -20 -4 -24 -6 -24 -6 5 18 16 14 34
23 39 20 5 -4 6 -1 2 5 -8 13 23 31 44 25 12 -4 12 -3 1 5 -17 12 3 27 22 16
6 -4 9 -4 5 1 -4 4 20 25 52 46 33 21 60 41 60 44 0 7 1 8 -70 -36z"/>
<path d="M2975 3840 c-3 -6 1 -7 9 -4 18 7 21 14 7 14 -6 0 -13 -4 -16 -10z"/>
<path d="M1130 3836 c0 -2 7 -7 16 -10 8 -3 12 -2 9 4 -6 10 -25 14 -25 6z"/>
<path d="M3036 3758 c3 -4 11 -5 19 -1 21 7 19 12 -4 10 -11 0 -18 -5 -15 -9z"/>
<path d="M951 3664 c0 -11 3 -14 6 -6 3 7 2 16 -1 19 -3 4 -6 -2 -5 -13z"/>
<path d="M1725 3651 c-6 -11 13 -26 22 -17 4 3 1 6 -6 6 -7 0 -9 5 -6 10 3 6
4 10 1 10 -3 0 -7 -4 -11 -9z"/>
<path d="M1920 3628 c-102 -8 -121 -11 -138 -22 -7 -4 -19 -5 -27 -2 -18 6
-81 -19 -68 -27 15 -9 54 4 46 16 -4 6 0 8 10 4 9 -3 47 0 84 8 44 9 129 15
237 15 93 0 167 3 164 6 -9 8 -212 10 -308 2z"/>
<path d="M2245 3629 c3 -5 25 -13 48 -19 138 -34 207 -55 247 -73 25 -11 53
-20 63 -19 9 0 15 -2 13 -6 -2 -4 24 -22 59 -39 43 -21 62 -27 61 -17 -1 7 -6
17 -11 21 -4 4 -5 2 -1 -4 9 -17 -4 -16 -27 1 -14 11 -15 15 -5 20 7 3 0 3
-17 -1 -16 -3 -27 -2 -23 2 9 10 -37 35 -64 35 -10 0 -16 5 -13 10 6 9 -10 14
-42 13 -7 -1 -13 3 -13 7 0 5 -12 10 -27 12 -16 2 -27 8 -26 13 1 6 -15 9 -39
7 -29 -3 -39 -1 -34 7 4 6 4 11 -1 10 -24 -4 -43 2 -37 12 5 8 2 9 -12 1 -12
-7 -31 -6 -61 3 -24 7 -41 9 -38 4z"/>
<path d="M795 3600 c-27 -28 -28 -31 -12 -45 9 -8 12 -10 7 -3 -16 19 -12 25
15 23 22 -3 24 -1 13 18 -10 19 -9 20 3 10 12 -10 15 -8 16 8 2 27 -9 24 -42
-11z"/>
<path d="M3335 3580 c1 -14 4 -23 6 -20 6 7 69 -40 69 -52 0 -6 -7 -5 -17 3
-15 11 -15 10 1 -8 10 -13 22 -20 27 -17 4 2 13 -5 19 -16 7 -13 7 -20 0 -20
-5 0 -10 -4 -10 -8 0 -5 7 -9 15 -9 8 0 12 4 9 8 -2 4 1 9 6 11 6 2 -20 37
-58 78 -58 63 -69 71 -67 50z"/>
<path d="M1654 3583 c7 -13 -4 -17 -31 -14 -7 1 -13 -3 -13 -9 0 -5 -6 -10
-14 -10 -7 0 -20 -8 -27 -17 -11 -13 -11 -15 -1 -9 7 4 36 16 63 25 45 16 48
19 32 32 -11 9 -14 10 -9 2z"/>
<path d="M702 3491 c-95 -114 -106 -131 -93 -144 10 -9 11 -8 5 7 -5 13 -4 17
4 12 7 -4 12 -2 12 5 0 9 3 9 14 0 11 -9 13 -6 10 19 -3 21 0 29 8 24 6 -4 8
-3 5 3 -4 6 3 13 14 16 12 3 18 10 14 17 -9 14 14 42 28 33 6 -3 7 -1 3 5 -4
7 5 23 21 37 15 13 23 25 16 25 -7 0 -34 -27 -61 -59z"/>
<path d="M1484 3516 c4 -26 14 -29 42 -12 14 10 23 20 20 23 -3 4 -15 -2 -27
-13 -13 -12 -19 -14 -17 -5 2 7 -2 15 -9 18 -6 2 -10 -3 -9 -11z"/>
<path d="M1384 3484 c-18 -14 -18 -15 4 -4 12 6 22 13 22 15 0 8 -5 6 -26 -11z"/>
<path d="M1440 3469 l-25 -20 33 16 c17 8 32 18 32 20 0 10 -16 4 -40 -16z"/>
<path d="M1352 3434 c-24 -26 -8 -34 26 -12 18 11 31 23 28 26 -3 3 -12 0 -20
-7 -8 -7 -16 -8 -18 -2 -1 5 -9 3 -16 -5z"/>
<path d="M3470 3435 c0 -4 16 -26 36 -50 21 -26 33 -49 28 -56 -5 -8 -3 -9 6
-4 10 6 12 4 7 -9 -4 -10 -3 -15 3 -11 11 7 32 -29 22 -40 -4 -5 -2 -5 4 -2
11 6 24 -11 30 -41 1 -8 9 -21 17 -30 23 -28 57 -105 50 -115 -3 -6 -1 -7 5
-3 17 10 15 -6 -3 -30 -22 -29 -18 -39 6 -13 l20 24 -6 -25 c-5 -19 -4 -22 4
-10 9 13 11 12 11 -6 0 -17 29 -69 30 -53 0 11 -53 135 -90 209 -56 112 -180
294 -180 265z"/>
<path d="M2786 3421 c-3 -5 2 -15 12 -22 15 -12 16 -12 5 2 -7 9 -10 19 -6 22
3 4 4 7 0 7 -3 0 -8 -4 -11 -9z"/>
<path d="M1302 3384 c-12 -8 -26 -12 -32 -9 -6 4 -7 -1 -3 -11 4 -12 3 -15 -5
-10 -7 4 -12 1 -12 -7 0 -15 -36 -30 -43 -18 -2 3 -3 1 -1 -5 1 -6 -3 -17 -9
-23 -8 -8 -8 -11 1 -11 7 0 15 7 18 15 4 8 11 15 18 15 6 0 31 18 56 40 46 40
52 52 12 24z"/>
<path d="M2865 3348 c73 -61 180 -172 223 -231 51 -70 118 -180 127 -206 6
-21 25 -20 25 0 0 6 -4 8 -9 5 -5 -3 -11 4 -15 17 -3 12 -1 24 4 25 6 2 8 8 5
12 -3 5 -12 7 -20 4 -16 -7 -39 31 -29 48 4 7 3 8 -4 4 -7 -4 -12 -3 -12 3 0
5 -12 24 -27 41 -21 26 -24 33 -12 41 9 5 10 9 2 9 -6 0 -14 9 -18 19 -3 11
-12 18 -19 15 -7 -3 -16 2 -20 12 -4 12 -2 15 9 11 8 -4 17 -2 20 3 3 4 -6 7
-20 5 -14 -1 -25 2 -25 8 0 6 -3 7 -7 4 -12 -12 -41 47 -30 61 6 8 6 12 -2 12
-6 0 -11 -4 -11 -10 0 -5 -5 -10 -11 -10 -5 0 -7 5 -3 12 4 7 3 8 -4 4 -6 -3
-15 2 -21 12 -5 10 -21 24 -35 31 -14 8 -23 19 -19 24 3 6 1 7 -5 3 -6 -4 -18
4 -27 18 -9 13 -26 26 -38 30 -14 3 -4 -9 28 -36z m239 -224 c3 -8 2 -12 -4
-9 -6 3 -10 10 -10 16 0 14 7 11 14 -7z"/>
<path d="M578 3323 c-8 -10 -28 -40 -43 -68 l-28 -50 27 30 c14 17 29 40 32
53 4 13 12 21 18 19 6 -3 12 4 12 14 0 23 1 23 -18 2z"/>
<path d="M1159 3313 c-13 -16 -12 -17 4 -4 9 7 17 15 17 17 0 8 -8 3 -21 -13z"/>
<path d="M1162 3262 c-10 -10 -26 -21 -35 -25 -9 -3 -17 -14 -17 -24 0 -14 3
-14 20 5 11 12 30 31 42 42 12 11 19 20 15 20 -4 0 -15 -8 -25 -18z"/>
<path d="M1096 3255 c-11 -8 -15 -15 -9 -15 6 0 16 7 23 15 16 19 11 19 -14 0z"/>
<path d="M560 3239 c0 -5 5 -7 10 -4 6 3 10 8 10 11 0 2 -4 4 -10 4 -5 0 -10
-5 -10 -11z"/>
<path d="M475 3150 c-29 -57 -31 -67 -11 -50 8 6 16 21 18 33 2 12 8 21 13 20
6 -1 11 10 11 23 1 13 0 24 -2 24 -2 0 -15 -22 -29 -50z"/>
<path d="M1061 3166 c-17 -18 -19 -24 -7 -22 19 3 29 12 32 31 3 20 1 19 -25
-9z"/>
<path d="M3120 3150 c6 -11 13 -20 16 -20 2 0 0 9 -6 20 -6 11 -13 20 -16 20
-2 0 0 -9 6 -20z"/>
<path d="M1011 3108 c12 -22 -9 -58 -21 -38 -5 8 -9 6 -13 -5 -4 -9 -3 -13 3
-10 6 3 10 2 10 -4 0 -21 -19 -20 -34 1 -9 12 -16 18 -16 14 0 -5 7 -17 16
-27 14 -16 14 -20 -1 -48 -9 -18 -20 -29 -25 -26 -6 4 -7 -1 -3 -11 6 -17 7
-17 17 1 6 10 34 53 61 95 l51 76 -28 0 c-23 0 -25 -2 -17 -18z m29 8 c0 -3
-4 -8 -10 -11 -5 -3 -10 -1 -10 4 0 6 5 11 10 11 6 0 10 -2 10 -4z"/>
<path d="M444 3073 c3 -3 -2 -12 -10 -20 -8 -9 -12 -18 -9 -22 4 -3 15 4 25
16 9 12 19 21 21 20 2 -1 3 0 1 2 -1 3 -10 6 -18 7 -9 1 -13 0 -10 -3z"/>
<path d="M406 2994 c-4 -9 -4 -19 -1 -22 2 -3 7 3 11 12 4 9 4 19 1 22 -2 3
-7 -3 -11 -12z"/>
<path d="M386 2937 c-3 -12 -3 -23 -1 -26 3 -2 5 1 5 9 0 10 4 10 18 -1 15
-13 16 -12 4 3 -10 13 -10 17 0 20 8 3 7 6 -4 10 -11 5 -18 0 -22 -15z"/>
<path d="M3737 2943 c-4 -3 -7 -11 -7 -17 0 -6 5 -5 12 2 6 6 9 14 7 17 -3 3
-9 2 -12 -2z"/>
<path d="M900 2919 c8 -13 5 -26 -10 -51 -11 -18 -20 -42 -20 -53 0 -12 9 -2
21 25 39 84 40 88 19 93 -17 4 -18 2 -10 -14z"/>
<path d="M3754 2890 c6 -46 17 -82 28 -97 5 -7 7 -17 4 -22 -4 -5 -2 -12 4
-16 5 -3 10 -16 10 -27 0 -12 3 -19 6 -15 7 7 -9 78 -27 124 -7 15 -13 39 -15
52 -1 13 -6 26 -9 29 -3 4 -4 -9 -1 -28z"/>
<path d="M366 2875 c-4 -15 -5 -30 -1 -33 3 -3 5 2 5 12 0 9 5 14 10 11 12 -8
13 5 1 23 -6 10 -10 7 -15 -13z"/>
<path d="M3246 2841 c8 -19 18 -38 22 -41 4 -3 8 -18 9 -33 1 -35 11 -46 23
-27 13 20 12 39 -1 20 -8 -12 -9 -10 -7 10 2 14 -5 33 -15 43 -14 14 -15 22
-7 37 6 11 9 20 8 21 -2 0 -13 2 -25 3 -21 3 -21 2 -7 -33z"/>
<path d="M350 2820 c0 -5 5 -10 10 -10 6 0 10 5 10 10 0 6 -4 10 -10 10 -5 0
-10 -4 -10 -10z"/>
<path d="M848 2802 c-4 -14 -2 -20 4 -16 6 4 7 -2 3 -17 -4 -13 -12 -26 -16
-27 -5 -2 -7 -7 -4 -12 3 -4 -2 -26 -10 -49 -8 -23 -11 -41 -7 -41 14 0 51
142 43 163 -8 20 -8 20 -13 -1z"/>
<path d="M3751 2804 c0 -11 3 -14 6 -6 3 7 2 16 -1 19 -3 4 -6 -2 -5 -13z"/>
<path d="M326 2719 c-20 -91 -20 -116 1 -137 16 -16 16 -16 8 3 -12 28 -10 69
8 143 8 34 12 62 7 62 -4 0 -15 -32 -24 -71z"/>
<path d="M3294 2703 c2 -10 8 -29 12 -43 4 -14 13 -63 19 -110 7 -47 14 -71
15 -55 1 17 3 37 4 45 1 8 -3 21 -7 27 -5 7 -6 24 -3 38 4 14 2 25 -3 25 -5 0
-14 20 -20 45 -6 25 -14 45 -17 45 -3 0 -3 -8 0 -17z"/>
<path d="M3806 2692 c-3 -5 -1 -22 4 -38 8 -29 8 -29 9 9 1 36 -3 45 -13 29z"/>
<path d="M2010 2664 c-85 -31 -150 -93 -180 -172 -40 -105 -18 -225 55 -309
139 -159 377 -130 480 58 26 47 29 65 30 134 0 61 -5 91 -22 126 -25 57 -87
121 -143 149 -57 29 -161 35 -220 14z"/>
<path d="M800 2609 c0 -11 5 -17 10 -14 6 3 10 13 10 21 0 8 -4 14 -10 14 -5
0 -10 -9 -10 -21z"/>
<path d="M3814 2557 c-1 -34 1 -51 4 -37 5 20 8 15 13 -25 4 -33 5 -23 2 30
-5 97 -18 118 -19 32z"/>
<path d="M795 2535 c-4 -28 -10 -43 -17 -39 -6 4 -5 -2 2 -15 7 -14 10 -64 8
-141 -2 -65 0 -116 3 -112 6 7 20 352 14 352 -1 0 -6 -20 -10 -45z"/>
<path d="M297 2503 c-8 -84 -7 -240 2 -313 6 -52 7 -53 14 -22 4 19 2 42 -3
52 -6 11 -8 85 -5 184 2 91 3 166 1 166 -2 0 -6 -30 -9 -67z"/>
<path d="M3356 2487 c3 -10 9 -15 12 -12 3 3 0 11 -7 18 -10 9 -11 8 -5 -6z"/>
<path d="M3340 2345 c-6 -178 -5 -192 5 -192 6 0 10 13 11 28 1 16 -2 27 -5
25 -3 -2 -4 37 -3 87 2 51 2 108 -1 127 -2 19 -5 -14 -7 -75z"/>
<path d="M3836 2360 c0 -33 3 -63 7 -66 4 -4 7 23 7 59 0 37 -3 67 -8 67 -4 0
-7 -27 -6 -60z"/>
<path d="M3832 2240 c0 -19 2 -27 5 -17 2 9 2 25 0 35 -3 9 -5 1 -5 -18z"/>
<path d="M802 2190 c0 -14 2 -19 5 -12 2 6 2 18 0 25 -3 6 -5 1 -5 -13z"/>
<path d="M3830 2187 c0 -9 -3 -17 -8 -17 -4 0 -8 -19 -8 -42 0 -24 -4 -70 -8
-103 -4 -32 -4 -57 -1 -54 3 3 7 24 10 45 3 21 9 70 15 108 5 38 7 72 5 74 -3
3 -5 -2 -5 -11z"/>
<path d="M801 2140 c0 -8 4 -22 9 -30 12 -18 12 -2 0 25 -6 13 -9 15 -9 5z"/>
<path d="M315 2065 c3 -38 9 -71 15 -73 6 -2 8 -8 5 -12 -6 -10 36 -170 59
-230 8 -19 20 -50 26 -68 18 -47 22 -34 6 18 -7 25 -11 52 -9 60 3 11 2 12 -5
2 -6 -9 -12 -2 -20 26 -7 22 -12 49 -12 60 0 11 -5 24 -11 27 -5 4 -8 12 -6
18 2 7 -2 24 -9 38 -7 14 -13 35 -13 45 0 10 -7 51 -16 89 l-15 70 5 -70z"/>
<path d="M3320 2114 c0 -8 5 -12 10 -9 6 4 8 11 5 16 -9 14 -15 11 -15 -7z"/>
<path d="M804 2071 c0 -11 3 -18 7 -15 7 4 16 -23 26 -76 5 -27 10 -36 18 -29
2 3 -3 27 -11 54 -9 28 -17 57 -18 64 -4 23 -22 24 -22 2z"/>
<path d="M3312 2070 c0 -14 2 -19 5 -12 2 6 2 18 0 25 -3 6 -5 1 -5 -13z"/>
<path d="M3279 1963 c-29 -94 -29 -97 -5 -101 11 -3 16 0 11 7 -3 6 -11 9 -16
6 -11 -8 -12 0 0 23 26 51 50 142 37 142 -2 0 -14 -35 -27 -77z"/>
<path d="M812 1940 c0 -19 2 -27 5 -17 2 9 2 25 0 35 -3 9 -5 1 -5 -18z"/>
<path d="M3785 1938 c-4 -13 -9 -27 -10 -33 -7 -38 -19 -73 -32 -93 -10 -16
-11 -27 -4 -40 8 -14 11 -14 12 -2 1 8 1 19 0 24 -1 4 2 13 7 20 9 10 24 62
28 91 0 6 4 18 9 28 4 10 5 20 3 23 -3 3 -9 -6 -13 -18z"/>
<path d="M860 1940 c-7 -32 -7 -39 1 -34 8 5 13 -12 12 -43 -1 -7 3 -10 8 -7
5 3 9 -2 9 -10 0 -8 -4 -18 -10 -21 -5 -3 -10 -11 -10 -18 0 -6 6 -2 14 8 13
18 13 18 24 -1 6 -10 12 -17 12 -14 0 8 -59 146 -60 140z"/>
<path d="M1840 975 l0 -945 260 0 260 0 0 945 0 945 -260 0 -260 0 0 -945z"/>
<path d="M3295 1890 c3 -5 8 -10 11 -10 2 0 4 5 4 10 0 6 -5 10 -11 10 -5 0
-7 -4 -4 -10z"/>
<path d="M3745 1890 c3 -5 8 -10 11 -10 2 0 4 5 4 10 0 6 -5 10 -11 10 -5 0
-7 -4 -4 -10z"/>
<path d="M3236 1845 c-3 -9 0 -15 9 -15 9 0 12 6 9 15 -4 8 -7 15 -9 15 -2 0
-5 -7 -9 -15z"/>
<path d="M415 1800 c3 -5 8 -10 11 -10 2 0 4 5 4 10 0 6 -5 10 -11 10 -5 0 -7
-4 -4 -10z"/>
<path d="M3205 1780 c-3 -10 -29 -54 -56 -96 -39 -59 -48 -79 -38 -88 9 -8 10
-8 5 2 -4 7 2 23 12 37 14 18 22 22 26 13 3 -7 3 -2 0 11 -5 17 -3 21 6 16 8
-5 11 -4 7 2 -3 5 5 26 18 46 14 20 25 41 25 46 0 6 5 11 10 11 6 0 10 5 10
10 0 18 -18 11 -25 -10z"/>
<path d="M918 1784 c-4 -3 -1 -13 7 -20 8 -8 12 -22 9 -32 -5 -14 -4 -15 5 -2
9 12 11 13 11 1 0 -8 -8 -23 -17 -33 -16 -18 -16 -18 0 -12 11 4 17 1 17 -7 0
-11 2 -11 10 1 5 8 12 11 16 7 4 -3 1 -13 -5 -21 -11 -13 -4 -15 27 -7 1 1 -2
10 -8 22 -7 12 -18 18 -26 15 -8 -3 -14 -1 -14 3 0 5 4 11 10 13 5 2 -1 20
-13 41 -13 21 -26 35 -29 31z"/>
<path d="M3723 1748 c0 -7 -3 -26 -7 -43 -6 -30 -6 -30 10 4 9 20 12 37 6 43
-5 5 -9 3 -9 -4z"/>
<path d="M440 1733 c0 -10 4 -14 8 -8 4 6 11 13 16 18 5 4 2 7 -7 7 -10 0 -17
-8 -17 -17z"/>
<path d="M3681 1724 c0 -11 3 -14 6 -6 3 7 2 16 -1 19 -3 4 -6 -2 -5 -13z"/>
<path d="M3686 1665 c4 -15 3 -30 -2 -34 -13 -9 -35 -61 -26 -61 5 0 18 21 30
46 20 41 21 47 7 61 -15 14 -15 13 -9 -12z"/>
<path d="M440 1635 c0 -12 24 -55 31 -55 4 0 1 14 -7 30 -14 27 -24 38 -24 25z"/>
<path d="M1020 1625 c0 -5 7 -16 15 -25 16 -17 10 -55 -6 -44 -5 3 -9 1 -9 -4
0 -18 13 -21 28 -6 12 12 17 13 23 3 10 -16 1 -31 -13 -23 -7 5 -8 2 -3 -5 6
-10 11 -10 22 2 14 13 11 20 -21 62 -20 27 -36 44 -36 40z"/>
<path d="M945 1599 c-3 -4 2 -6 10 -5 21 3 28 13 10 13 -9 0 -18 -4 -20 -8z"/>
<path d="M495 1590 c-3 -6 1 -7 9 -4 18 7 21 14 7 14 -6 0 -13 -4 -16 -10z"/>
<path d="M3035 1529 c-27 -33 -86 -93 -130 -132 -44 -39 -72 -68 -62 -64 10 4
24 7 29 7 6 0 8 3 5 7 -4 3 5 17 19 30 21 19 29 21 40 12 12 -9 18 -9 27 0 9
10 8 11 -5 6 -26 -10 -22 12 8 41 24 25 26 25 45 8 18 -16 19 -16 13 -1 -3 9
-10 17 -16 17 -5 0 -6 5 -3 10 4 6 11 7 17 4 7 -5 8 -2 4 5 -11 18 24 54 39
41 14 -12 45 -3 45 12 0 6 -7 5 -15 -2 -9 -7 -18 -10 -21 -7 -9 9 6 48 17 42
5 -3 6 1 3 9 -3 9 -7 16 -8 15 0 0 -23 -27 -51 -60z"/>
<path d="M3601 1564 c0 -11 3 -14 6 -6 3 7 2 16 -1 19 -3 4 -6 -2 -5 -13z"/>
<path d="M490 1529 c28 -53 85 -143 105 -163 9 -8 15 -19 15 -23 -1 -12 100
-143 119 -153 11 -5 23 -5 32 2 11 8 11 9 -3 4 -10 -3 -18 -1 -18 4 0 6 -5 9
-12 8 -6 -2 -18 11 -27 27 -8 17 -21 35 -29 41 -8 6 -12 16 -9 21 4 6 -7 25
-23 43 -16 18 -27 37 -23 43 3 6 1 7 -5 3 -22 -13 -37 6 -17 21 17 11 17 13 2
13 -9 0 -15 6 -13 13 1 6 1 9 -1 5 -8 -15 -25 -8 -19 7 3 8 0 14 -7 12 -7 -1
-11 7 -9 18 2 17 1 18 -8 5 -10 -12 -11 -11 -7 7 3 14 1 20 -8 17 -14 -6 -28
23 -18 38 3 7 1 8 -5 4 -7 -4 -12 -1 -12 8 0 9 -5 16 -10 16 -6 0 -1 -18 10
-41z m160 -223 c0 -5 -7 -1 -15 10 -8 10 -14 24 -14 29 0 6 6 1 14 -9 8 -11
15 -24 15 -30z"/>
<path d="M3643 1553 c-7 -2 -13 -11 -13 -19 0 -12 -11 -18 -31 -16 -3 1 -6 -6
-6 -13 0 -11 3 -12 14 -3 12 10 12 7 2 -15 -7 -15 -16 -24 -20 -21 -5 3 -6 -1
-4 -8 3 -8 -4 -24 -16 -37 -21 -23 -23 -23 -36 -5 -7 10 -13 13 -13 7 0 -6 7
-16 15 -23 8 -7 15 -17 15 -22 0 -6 -6 -5 -15 2 -12 10 -14 8 -10 -9 2 -12 -1
-21 -7 -21 -6 0 -9 -3 -5 -6 3 -3 -2 -14 -11 -24 -9 -10 -25 -34 -35 -52 l-18
-33 26 30 c46 53 199 299 183 294 -2 0 -9 -3 -15 -6z"/>
<path d="M1090 1509 c0 -7 2 -10 5 -7 3 3 24 -12 47 -32 30 -28 39 -43 35 -59
-5 -22 8 -29 16 -8 3 7 6 5 6 -5 1 -10 6 -18 12 -18 6 0 9 -6 6 -13 -3 -7 5
-19 16 -26 18 -11 20 -11 10 0 -7 7 -13 20 -13 28 0 11 4 10 19 -5 34 -35 69
-62 90 -69 12 -3 21 -11 21 -16 0 -5 7 -9 15 -9 8 0 15 -9 15 -20 0 -10 10
-25 22 -31 13 -7 18 -14 13 -16 -6 -2 -9 -78 -8 -205 2 -112 3 -216 3 -232 0
-16 3 -27 6 -23 3 3 6 119 7 257 l0 251 -71 44 c-38 24 -112 84 -162 132 -97
92 -110 103 -110 82z m330 -264 c10 -12 10 -15 -4 -15 -9 0 -16 7 -16 15 0 8
2 15 4 15 2 0 9 -7 16 -15z"/>
<path d="M580 1481 c0 -6 4 -13 10 -16 6 -3 7 1 4 9 -7 18 -14 21 -14 7z"/>
<path d="M1070 1476 c0 -2 8 -10 18 -17 15 -13 16 -12 3 4 -13 16 -21 21 -21
13z"/>
<path d="M1133 1445 c0 -8 4 -12 8 -9 4 2 10 -2 12 -8 4 -8 6 -9 6 -2 1 6 -5
17 -12 23 -10 8 -14 7 -14 -4z"/>
<path d="M3546 1433 c-6 -14 -5 -15 5 -6 7 7 10 15 7 18 -3 3 -9 -2 -12 -12z"/>
<path d="M2901 1333 c-7 -8 -11 -16 -8 -19 2 -2 10 2 17 11 17 20 9 27 -9 8z"/>
<path d="M3476 1333 c-6 -14 -5 -15 5 -6 7 7 10 15 7 18 -3 3 -9 -2 -12 -12z"/>
<path d="M2787 1306 c-16 -12 -17 -36 -15 -300 l3 -286 63 30 c65 30 75 40 43
37 -11 0 -17 -5 -15 -9 3 -4 -5 -8 -17 -8 -18 0 -19 2 -9 15 19 22 8 25 -12 3
-12 -12 -14 -18 -5 -18 13 -1 -21 -30 -35 -30 -4 0 -6 125 -5 278 2 239 4 277
17 277 8 0 14 -5 13 -11 -1 -6 5 -11 12 -11 11 0 12 4 4 13 -5 6 -6 14 -2 16
4 3 3 3 -4 2 -6 -2 -13 1 -15 6 -2 5 -11 3 -21 -4z"/>
<path d="M3402 1223 c-12 -12 -18 -23 -12 -23 5 0 10 -4 10 -10 0 -5 -7 -10
-15 -10 -8 0 -15 -4 -15 -10 0 -15 16 -12 30 5 6 8 8 20 4 26 -5 8 -2 10 9 6
17 -6 29 13 19 30 -4 6 -16 0 -30 -14z"/>
<path d="M779 1185 c-1 -3 -3 -9 -4 -15 -1 -5 -3 -13 -4 -17 -1 -5 -5 -1 -11
7 -5 8 -11 12 -14 9 -3 -3 9 -20 28 -38 24 -24 36 -29 41 -20 6 8 4 10 -5 4
-10 -6 -12 -4 -7 8 4 10 2 14 -7 11 -7 -3 -13 2 -13 11 0 10 6 14 16 10 13 -4
13 -2 -1 8 -10 8 -15 17 -11 20 3 4 3 7 0 7 -4 0 -8 -2 -8 -5z"/>
<path d="M3331 1143 c5 -14 5 -23 -1 -23 -6 0 -10 -6 -10 -14 0 -8 -5 -18 -12
-22 -8 -5 -9 -2 -5 9 3 10 4 17 1 17 -2 0 -9 -12 -14 -26 -8 -19 -16 -25 -29
-21 -15 4 -19 0 -16 -14 4 -20 4 -21 -37 -23 -15 -1 -31 -5 -35 -10 -4 -4 -3
-7 2 -6 20 4 35 0 35 -11 0 -6 -6 -9 -14 -6 -15 6 -46 -22 -46 -42 0 -14 60
34 163 131 54 50 66 67 55 75 -7 6 -20 10 -30 10 -13 0 -14 -5 -7 -24z m24 8
c3 -5 1 -12 -5 -16 -5 -3 -10 1 -10 9 0 18 6 21 15 7z m-165 -165 c0 -2 -8
-10 -17 -17 -16 -13 -17 -12 -4 4 13 16 21 21 21 13z"/>
<path d="M820 1089 c0 -8 103 -99 163 -143 20 -16 37 -23 37 -17 0 6 -5 11
-11 11 -5 0 -7 5 -3 12 5 7 3 8 -6 3 -10 -6 -12 -4 -6 11 6 15 5 16 -5 7 -10
-10 -16 -9 -30 3 -10 9 -16 21 -15 27 2 7 1 9 -1 5 -3 -5 -9 -8 -14 -8 -6 0
-7 5 -4 10 4 6 1 9 -7 8 -8 -2 -13 6 -12 18 0 14 -4 20 -12 17 -21 -8 -35 6
-25 25 7 14 4 17 -20 18 -16 1 -29 -2 -29 -7z"/>
<path d="M3105 925 c-31 -25 -51 -33 -40 -15 3 6 1 10 -5 10 -7 0 -10 -7 -6
-15 3 -10 -1 -15 -12 -15 -21 0 -55 -37 -42 -45 6 -4 10 -1 10 4 0 6 6 10 13
9 6 -2 11 3 9 10 -1 8 2 11 7 8 11 -7 101 53 101 66 0 11 -2 11 -35 -17z"/>
<path d="M1030 923 c0 -18 75 -70 179 -126 75 -40 90 -45 100 -33 10 12 9 14
-7 9 -23 -6 -128 50 -124 67 1 6 -2 9 -8 5 -10 -6 -51 12 -62 28 -3 6 -14 12
-24 13 -10 2 -26 13 -36 26 -10 13 -18 17 -18 11z"/>
<path d="M3003 909 c-2 -23 3 -25 10 -4 4 8 3 16 -1 19 -4 3 -9 -4 -9 -15z"/>
<path d="M2880 860 c-9 -6 -10 -10 -3 -10 6 0 15 5 18 10 8 12 4 12 -15 0z"/>
<path d="M2965 830 c-3 -5 -13 -7 -23 -4 -14 5 -15 4 -2 -5 12 -9 11 -11 -7
-11 -13 0 -23 -4 -23 -10 0 -5 3 -10 6 -10 9 0 74 41 74 46 0 8 -19 4 -25 -6z"/>
<path d="M1324 756 c-8 -9 -5 -15 13 -23 19 -9 22 -9 15 0 -5 7 -11 17 -13 24
-3 8 -7 8 -15 -1z"/>
<path d="M1367 729 c5 -20 18 -25 27 -11 2 4 -4 13 -14 19 -15 10 -17 9 -13
-8z"/>
<path d="M1407 716 c-3 -8 0 -17 8 -19 15 -7 25 1 25 20 0 17 -26 17 -33 -1z"/>
</g>
</svg>
